<svg xmlns="http://www.w3.org/2000/svg" xmlns:svgjs="http://svgjs.com/svgjs" xmlns:xlink="http://www.w3.org/1999/xlink" width="288" height="288"><svg xmlns="http://www.w3.org/2000/svg" width="288" height="288" viewBox="0 0 96 96"><switch><g fill="#f3f3f3" class="color000 svgShape"><path d="M68 24v-4C68 8.954 59.046 0 48 0S28 8.954 28 20v4H12v60c0 6.63 5.37 12 12 12h48c6.63 0 12-5.37 12-12V24H68zm-32-4c0-6.627 5.373-12 12-12s12 5.373 12 12v4H36v-4zm40 64c0 2.21-1.79 4-4 4H24c-2.21 0-4-1.79-4-4V32h56v52z" class="color000 svgShape"/></g></switch></svg></svg>